<?xml version="1.0" encoding="utf-8"?>
<svg version="1.1" id="Layer_1" xmlns="http://www.w3.org/2000/svg" xmlns:xlink="http://www.w3.org/1999/xlink" x="0px" y="0px"
	 viewBox="0 0 1803 1920" enable-background="new 0 0 1803 1920" xml:space="preserve">
<path d="M371.57,56.56c4.516-5.698,19.548-14.555,25.81,9.18c8.258,37.24-10.884,78.687,11.86,146.99
	c20.9,60.938,53.34,46.928,48.91,73.31c-3.85,28.34-12.15,55.93-22.8,82.43c-32.018,98.697-26.383,142.825,10.21,249.7
	c-71.896,39.171-229.192,15.285-308-7.01c47.817-101.235,42.906-155.578,40.54-183.17c-2.101-22.733-7.378-57.978-15.62-79.55
	c-5.094-13.31-22.129-63.001-14.33-75.3c4.373-6.653,56.948-35.697,65.67-156.11c5.365-77.735,34.228-70.133,41.28-50.16
	c10.834,31.695-5.27,83.033-0.48,165.7c15.108,38.327,86.598,40.659,96.86-10.28C361.82,157.299,348.584,85.062,371.57,56.56
	 M238.81,75.82c-6.643,16.806-8.027,61.975-9.03,84.19c0.23,19.58,5.27,38.79,11.89,57.11c-2.79-56.168,11.825-129.412,0.22-145.33
	C240.59,72.9,239.37,74.17,238.81,75.82 M373.59,91.45c-4.992,23.562-1.76,75.181-7.11,115.48
	c17.574-55.193,20.714-121.675,18.11-131.54C384.309,73.999,379.648,66.158,373.59,91.45z"/>
<path d="M919.92,50.57c28.348,1.315,23.273,11.812,25.24,29.47c1.524,19.34,5.917,24.517,33.84,37.96
	c48.681,22.115,67.575-4.321,80.37,50.73c46.475,230.095,86.585,380.044,88.16,454.39c-20.67,0.63-41.32,1.67-61.96,2.75
	c-6.528-29.737-10.544-124.035-16.78-146.87c-31.185-123.079-41.406-175.447-42.83-182.45c-5.73,9.18-8.41,19.85-10.95,30.27
	c-15.368,64.893,12.258,73.796,30.67,204.45c-46.724,19.487-48.679,17.76-68.97,21.23c-102.337,15.577-145.531,13.722-197.06,5.52
	c1.35-21.4,2.75-42.97,7.7-63.9c13.051-46.571,20.132-120.314-3.71-165.55c-7.939,18.151-1.739,63.817-8.08,141.49
	c-2.16,30.76-8.59,60.97-14.05,91.25c-1.522,7.647-1.768,10.182-4.08,73.47c-0.166,5.947-6.298,4.926-61.8,0.73
	c-8.123-46.267,6.052-40.163,22.81-236.61c2.983-31.287-7.234-176.23,14.45-243.11c3.637-10.368,4.239-19.909,31.16-25.78
	c54.853-9.966,65.026-14.932,71.92-23.02c11.419-14.745-9.217-46.344,11.28-52.66C862.214,49.546,904.066,50.158,919.92,50.57z"/>
<path d="M1511.91,50.45c6.995,92.063,73.019,86.39,96.99,47.41c7.75-12.39,14.19-25.52,20.83-38.52
	c23.176,17.555,26.888,12.448,41.89,16.18c-3.881,9.563-3.902,32.443-2.41,38.27c4.323,17.386,8.41,11.597,17.18,58.6
	c3.865,22.02-21.588,46.706-17.98,78.66c0.505,25.402-6.959,59.123-6.97,68.97c-0.282,21.276,1,19.553,17.81,87.7
	c4.579,19.679,11.67,33.933,9.56,113.28c-0.845,64.828-6.998,50.27,12.44,82.95c-22.804,19.98-59.845,25.971-90.26,27.16
	c-13.445,0.176-53.543,12.059-95.92,6.35c-74.682-9.786-94.027-28.605-119.11-57.49c14.579-25.31,12.155-14.214,7.91-40.57
	c-10.606-48.742,16.046-120.393,39.21-164.34c22.856-34.008,11.601-106.016,10.52-142.13c-2.647-36.068-24.942-56.422-17.89-81.06
	c1.992-7.372,28.754-63.905,27.38-91.45C1503.323,56.979,1478.037,63.983,1511.91,50.45z"/>
<path d="M374.88,862.77c66.114,339.426,66.219,354.282,80.07,452.45c-10.04,2.37-20.01,5.1-29.6,8.92
	c-10.68,4.08-22.24,2.1-33.35,3.05c-12.07,0.18-23.95,2.41-35.88,3.95c-4.297-31.996-44.527-314.269-44.67-315.27
	c-1.389-11.428-11.729-8.002-12.54-2.04c-22.263,100.196-21.471,99.378-67.33,315.73c-37.052,2.226-56.313-10.267-90.54-9.79
	c14.878-113.06,64.025-310.509,70.15-394.73c-0.449-12.845,4.51-30.66,11.41-56.84c32.943,3.792,26.016,15.769,95.46,11.6
	C333.351,879.356,360.277,867.488,374.88,862.77z"/>
<path d="M857.99,862.6c11.503,14.319,27.633,35.45,35.28,41.12c13.88,9.71,32.1,13.75,48.58,9.06
	c38.873-10.283,38.413-27.156,40.72-44.88c6.64,5.13,12.73,10.97,19.52,15.88c31.637,5.344,62.449-0.427,76.83,20.27
	c2.438,3.438,1.829-1.143,28.22,117.06c3.044,8.824-36.076,24.022-60.35,13.28c-7.275,28.81-23.185,38.052-22.61,60.65
	c2.42,25.35,2.1,50.97,6.49,76.11c1.27,8.35,5.06,16.02,6.65,24.3c7.37,33.912,14.612,89.524,14.58,107.61
	c0.56,5.8-3.86,10.42-7.89,13.97c-7.18,6.13-16.82,7.62-25.91,8.49c-121.553,12.63-174.224,3.381-228.5-13.33
	c2.5-23.05,4.49-46.17,7.35-69.19c3.54-23.87,14.63-45.73,19.54-69.27c10.524-47.892,7.578-45.552,2.27-64.46
	c-26.264-84.31-18.423-73.676-18.34-101.31c-2.85,6.13-4.54,12.81-7.74,18.75c-15.116,1.444-49.253,1.719-59.39-8.67
	c3.678-25.463,16.97-71.135,24.64-94.29c6.969-20.306,41.552-35.653,63.05-37.01C842.467,885.227,837.681,887.297,857.99,862.6z"/>
<path d="M1426.01,862.78c75.349-1.044,98.297,0.736,121.53,8.72c10.317,4.115,10.957,4.604,5.56,34.64
	c-6.407,25.754-2.321,218.41,18.75,247.01c81.861,99.727,50.422,78.036,109.66,93.61c9.84,3.16,20.41,2.28,30.53,1.15
	c5-0.42,10.53-3.11,15.25-0.19c10.415,6.675,12.938,29.166,16.42,43.39c4.616,17.812-127.374,48.977-170.43,37.69
	c-16.691-4.811-19.654-6.954-44.7-34.35c-9.232-10.69-34.423-15.003-38.82-6.81c-0.97,8.91-1.49,17.93-3.43,26.72
	c-36.068,14.829-87.262,4.449-124.02-8.58c-1.77-0.35-0.98-2.56-1.15-3.75c2.963-92.191,9.217-96.149,19.02-116.77
	c1.6-3.68,4.34-7.07,4.38-11.24c15.309-181.603-32.443-149.123-31.26-289.07c-0.2-4.45,4.09-7.12,7.41-9.2
	C1384.425,862.647,1418.102,863.256,1426.01,862.78z"/>
<path d="M882.47,1461.47c17.681-15.231,41.832-16.742,57.4,9.6c15.564,26.89,20.527,66.827,40.55,75.5
	c100.692,41.353,96.294,89.802,101.86,107.15c9.009,28.313,5.011,127.576,2.62,143.14c-1.61,8.98-7.15,16.44-12.21,23.78
	c-5.55,8.12-9.76,17.25-16.68,24.37c-39.889,41.962-240.867,40.127-276,0c-4.9-5.9-5.22-14.14-9.76-20.25
	c-16.743-22.736-11.996,3.982-16.91-96.82c-1.623-19.142,0.967-64.76,6.76-71.81c4.918-5.131,23.937-0.407,39.91-0.63
	c173.378,3.282,233.324,3.949,263.19-5.18c11.414-3.764,5.156-27.687-0.37-39.15c-26.838-48.488-98.086-39.842-116.71-95.49
	c-6.098-18.319-12.599-51.324-35.28-55.73c-50.726-9.407-143.146,146.257-141.62,182.75
	C726.075,1642.596,832.541,1500.321,882.47,1461.47 M764.1,1663.03c-2.842,6.056,20.624,52.656,27.58,63.29
	c27.696,41.96,78.833,35.901,144.34,36.08c24.03,0.46,48.79,3.92,72.21-3.26c35.568-10.699,68.259-80.175,64.63-90.02
	c-1.85,0.09-3.9,0.04-5.32,1.43c-4.81,3.98-8.1,9.43-11.08,14.84c-12.045,22.777-40.053,58.953-47.37,62.75
	c-29.105,15.675-183.814,5.564-197.61-5.65c-21.462-17.105-25.427-65.558-42.68-78.22C767.43,1663.45,765.72,1661.9,764.1,1663.03z"
	/>
<path d="M1609.94,1537.1c4.24,0.75,7.21,4.2,8.65,8.08c27.839,4.624,61.332,17.441,82.15,37.07
	c26.096,23.54,21.137,16.3,30.13,28.91c31.183,45.586,32.93,101.883,13.25,146.69c-3.62-2.34-6.55-5.62-10.44-7.53
	c-12.12-6.313-17.415-3.992-40.47-14.58c-17.43,18.98-40.4,32.17-64.36,41.14c-100.313,36.678-186.317-19.827-234.73-12.75
	c-13.06,5.32-26.05,10.84-39.19,15.96c-4.88,1.66-8.72,7.2-14.37,5.28c-1.51-5.11,2.09-9.97,6.27-12.49
	c79.811-48.381,81.058-47.223,83.84-57.05c2.832-37.37,11.698-113.724,46.25-128.79c35.233-15.809,67.905-42.358,108.33-39.46
	C1586.984,1543.936,1590.199,1533.447,1609.94,1537.1z"/>
<path d="M56.34,1571.21c28.188-11.304,66.876-9.902,111.56,15.94c73.814,43.371,96.834,98.681,135.23,127.22
	c23.648-41.284,33.368-60.895,64.06-83.17c11.133-7.41,23.103-16.383,46.14-0.52c4.59,3.37,9.41,7.66,9.97,13.73
	c1.71,17.3-0.61,34.86-5.51,51.49c3.58,0.07,7.34,0.81,10.83-0.16c11.353-16.751,28.171-42.799,51.11-34.44
	c14.406,4.282,18.349,35.8,15.05,61.27c33.131-16.206,33.448-21.163,45.87-20.19c4.971,2.743,15.71,9.095,11.13,12.37
	c-21.144,17.596-37.332,23.003-57.63,30.51c-62.349,21.442-90.772,16.126-115.85,13.92c-27.661-3.113-58.146-7.118-77.78-24.72
	c-31.563-28.165-109.527-122.343-152.32-112.04c-12.679,2.876-17.484,17.393-22.84,50.81c-5.01,34.374-3.188,37.228-1.57,80.31
	c-9.58,0.07-19.14,1.04-28.73,1.04c9.707-158.751-3.513-115.793-47.04-164.58c-2.29-3.02-5.64-6.47-4.68-10.57
	C46.67,1575.41,51.66,1573.26,56.34,1571.21 M377.65,1649.66c-7,6.56-13.52,13.65-19.58,21.08c13.22,9.94,28.56,16.88,44.49,21.2
	c4.289-15.534,8.969-32.769,5.98-40.54c-2.09-5.97-8.07-10.67-14.55-10.27C387.41,1640.88,382.28,1645.63,377.65,1649.66
	 M325.65,1726.92c20.362,13.347,49.763,15.394,64.6,13.59c2.87-11.12,6.43-22.1,8.25-33.45c-18.71-2.95-33.46-15.66-49.62-24.44
	C340.02,1696.75,332.19,1711.58,325.65,1726.92 M462.73,1687.72c-20.265,14.428-23.677,40.995-20.57,52.14
	c14.28-1.46,27.86-6.51,41.22-11.5c4.9-23.734-4.995-40.669-10.9-43.79C468.92,1683.27,465.53,1685.81,462.73,1687.72
	 M412.69,1711.94c-2.02,9.83-4.46,19.58-6.41,29.43c3.04-0.36,6.63,0.85,9.35-0.54c1.5-8.74,2.58-17.69,6.11-25.91
	C418.7,1713.95,415.72,1712.89,412.69,1711.94z"/>
</svg>
